<?xml version="1.0" encoding="UTF-8"?>
<svg width="150px" height="120px" viewBox="0 0 150 120" version="1.1" xmlns="http://www.w3.org/2000/svg" xmlns:xlink="http://www.w3.org/1999/xlink">
    <!-- Generator: Sketch 56.2 (81672) - https://sketch.com -->
    <title>Mobile Portrait</title>
    <desc>Created with Sketch.</desc>
    <g id="Mobile-Portrait" stroke="none" stroke-width="1" fill="none" fill-rule="evenodd">
        <g id="design" transform="translate(56.000000, 11.000000)" fill="#2C2C2C" fill-rule="nonzero">
            <path d="M8.066,38 C8.103,39.339 7.923,40.813 7.554,42.457 C7.254,43.795 6.858,45.147 6.267,46.939 C6.175,47.219 6.082,47.499 5.956,47.875 L5.654,48.777 C5.46576267,49.3349697 5.28474754,49.8953498 5.111,50.458 C3.018,56.964 2.757,59.58 3.44,66 L34.613,66 C35.297,59.58 35.036,56.964 32.941,50.451 C32.798,49.983 32.635,49.481 32.401,48.777 L32.098,47.875 C31.972,47.499 31.878,47.218 31.787,46.939 C31.197,45.147 30.8,43.795 30.5,42.457 C30.132,40.817 29.952,39.345 29.989,38 L8.066,38 Z M7.996,37.001 L8.026,37 L30.026,37 L30.059,37.001 C30.073,36.881 30.089,36.761 30.107,36.643 C30.319,35.567 30.627,34.515 31.047,33.393 C31.635,31.824 34.612,25.586 35.285,24.003 C37.135,19.653 37.458,13.523 36.66,12.324 C36.505,12.092 36.349,11.954 36.052,11.8 C35.621,11.576 31.69,10.196 30.809,9.868 C26.561,8.448 24.119,6.128 23.967,2.479 C23.967,1.258 23.787,1 22.979,1 L15.074,1 C14.267,1 14.086,1.258 14.086,2.5 C13.934,6.128 11.492,8.448 7.26,9.862 C6.362,10.196 2.432,11.576 2,11.8 C1.704,11.955 1.547,12.092 1.393,12.324 C0.595,13.523 0.918,19.654 2.768,24.003 C3.441,25.586 6.418,31.824 7.006,33.393 C7.426,34.515 7.734,35.567 7.949,36.665 C7.966,36.775 7.981,36.888 7.994,37.001 L7.996,37.001 Z M19.526,67 L19.526,93.5 C19.526,93.7761424 19.3021424,94 19.026,94 C18.7498576,94 18.526,93.7761424 18.526,93.5 L18.526,67 L2.544,67 L2.495,66.555 C1.737,59.672 1.974,56.945 4.157,50.159 C4.303,49.681 4.467,49.172 4.705,48.461 C4.775,48.249 4.855,48.014 5.008,47.558 L5.318,46.626 C5.898,44.862 6.287,43.538 6.578,42.238 C7.05,40.139 7.194,38.353 6.965,36.836 C6.765,35.816 6.472,34.816 6.07,33.744 C5.5,32.224 2.537,26.014 1.849,24.394 C-0.12,19.766 -0.461,13.304 0.562,11.77 C0.812,11.394 1.097,11.144 1.54,10.913 C2.045,10.65 6.11,9.223 6.928,8.919 C10.825,7.617 12.957,5.592 13.088,2.479 C13.087,0.766 13.623,0 15.074,0 L22.979,0 C24.43,0 24.967,0.766 24.966,2.458 C25.097,5.592 27.229,7.618 31.142,8.925 C31.944,9.223 36.009,10.65 36.514,10.913 C36.957,11.143 37.242,11.394 37.492,11.77 C38.514,13.305 38.174,19.766 36.205,24.394 C35.517,26.014 32.553,32.224 31.984,33.744 C31.6024121,34.7409494 31.3040587,35.7677933 31.092,36.814 C30.86,38.353 31.004,40.139 31.476,42.238 C31.767,43.538 32.156,44.862 32.736,46.626 L33.046,47.558 L33.349,48.461 C33.5382931,49.0222857 33.7203083,49.5859997 33.895,50.152 C36.08,56.945 36.316,59.672 35.559,66.555 L35.509,67 L19.528,67 L19.526,67 Z M12.026,98 C11.7498576,98 11.526,97.7761424 11.526,97.5 C11.526,97.2238576 11.7498576,97 12.026,97 L26.026,97 C26.3021424,97 26.526,97.2238576 26.526,97.5 C26.526,97.7761424 26.3021424,98 26.026,98 L12.026,98 Z" id="Shape"></path>
        </g>
    </g>
</svg>