<?xml version="1.0" encoding="UTF-8"?>
<svg width="150px" height="120px" viewBox="0 0 150 120" version="1.1" xmlns="http://www.w3.org/2000/svg" xmlns:xlink="http://www.w3.org/1999/xlink">
    <!-- Generator: Sketch 56.2 (81672) - https://sketch.com -->
    <title>Mobile Portrait</title>
    <desc>Created with Sketch.</desc>
    <g id="Mobile-Portrait" stroke="none" stroke-width="1" fill="none" fill-rule="evenodd">
        <g id="factories" transform="translate(21.000000, 11.000000)" fill="#2C2C2C" fill-rule="nonzero">
            <path d="M19.5,52 L19.5,54 L22,54 C22.2761424,54 22.5,54.2238576 22.5,54.5 C22.5,54.7761424 22.2761424,55 22,55 L19.5,55 L19.5,58.5 C19.5,58.7761424 19.2761424,59 19,59 C18.7238576,59 18.5,58.7761424 18.5,58.5 L18.5,52 L13,52 C10.790861,52 9,50.209139 9,48 L9,42.187 C9,39.977861 7.209139,38.187 5,38.187 C2.23857625,38.187 0,35.9484237 0,33.187 L0,17 C0,11.477 4.477,7 10,7 L88,7 L88,0.5 C88,0.223857625 88.2238576,0 88.5,0 C88.7761424,0 89,0.223857625 89,0.5 L89,7 L94,7 C99.523,7 104,11.477 104,17 L104,89 C104,91.7614237 101.761424,94 99,94 L5,94 C2.23857625,94 0,91.7614237 0,89 L0,72 C0,66.477 4.477,62 10,62 L74,62 L74,38.187 L38.813,38.187 C33.393,38.187 29,42.58 29,48 C29,50.209139 27.209139,52 25,52 L19.5,52 Z M1,32 L1,33.187 C1,35.396139 2.790861,37.187 5,37.187 C7.76142375,37.187 10,39.4255763 10,42.187 L10,48 C10,49.6568542 11.3431458,51 13,51 L25,51 C26.6568542,51 28,49.6568542 28,48 C28,42.028 32.841,37.187 38.813,37.187 L75,37.187 L75,63 L10,63 C5.02943725,63 1,67.0294373 1,72 L1,78 L103,78 L103,32 L1,32 Z M1,31 L103,31 L103,17 C103,12.0294373 98.9705627,8 94,8 L10,8 C5.02943725,8 1,12.0294373 1,17 L1,31 Z M103,79 L1,79 L1,89 C1,91.209139 2.790861,93 5,93 L99,93 C101.209139,93 103,91.209139 103,89 L103,79 Z M89,49 C85.6862915,49 83,46.3137085 83,43 C83,39.6862915 85.6862915,37 89,37 C92.3137085,37 95,39.6862915 95,43 C95,46.3137085 92.3137085,49 89,49 Z M89,48 C91.7614237,48 94,45.7614237 94,43 C94,40.2385763 91.7614237,38 89,38 C86.2385763,38 84,40.2385763 84,43 C84,45.7614237 86.2385763,48 89,48 L89,48 Z M89,63 C85.6862915,63 83,60.3137085 83,57 C83,53.6862915 85.6862915,51 89,51 C92.3137085,51 95,53.6862915 95,57 C95,60.3137085 92.3137085,63 89,63 Z M89,62 C91.7614237,62 94,59.7614237 94,57 C94,54.2385763 91.7614237,52 89,52 C86.2385763,52 84,54.2385763 84,57 C84,59.7614237 86.2385763,62 89,62 Z M107,37.5 C107,37.2238576 107.223858,37 107.5,37 C107.776142,37 108,37.2238576 108,37.5 L108,62.5 C108,62.7761424 107.776142,63 107.5,63 C107.223858,63 107,62.7761424 107,62.5 L107,37.5 Z M88,16.5 C88,16.2238576 88.2238576,16 88.5,16 C88.7761424,16 89,16.2238576 89,16.5 L89,22.5 C89,22.7761424 88.7761424,23 88.5,23 C88.2238576,23 88,22.7761424 88,22.5 L88,16.5 Z M81,16.5 C81,16.2238576 81.2238576,16 81.5,16 C81.7761424,16 82,16.2238576 82,16.5 L82,22.5 C82,22.7761424 81.7761424,23 81.5,23 C81.2238576,23 81,22.7761424 81,22.5 L81,16.5 Z M74,16.5 C74,16.2238576 74.2238576,16 74.5,16 C74.7761424,16 75,16.2238576 75,16.5 L75,22.5 C75,22.7761424 74.7761424,23 74.5,23 C74.2238576,23 74,22.7761424 74,22.5 L74,16.5 Z M5,98 C4.72385763,98 4.5,97.7761424 4.5,97.5 C4.5,97.2238576 4.72385763,97 5,97 L99,97 C99.2761424,97 99.5,97.2238576 99.5,97.5 C99.5,97.7761424 99.2761424,98 99,98 L5,98 Z" id="Shape"></path>
        </g>
    </g>
</svg>