<?xml version="1.0" encoding="UTF-8"?>
<svg width="150px" height="120px" viewBox="0 0 150 120" version="1.1" xmlns="http://www.w3.org/2000/svg" xmlns:xlink="http://www.w3.org/1999/xlink">
    <!-- Generator: Sketch 56.2 (81672) - https://sketch.com -->
    <title>Mobile Portrait</title>
    <desc>Created with Sketch.</desc>
    <g id="Mobile-Portrait" stroke="none" stroke-width="1" fill="none" fill-rule="evenodd">
        <g id="no-celeb" transform="translate(18.000000, 10.000000)" fill="#2C2C2C" fill-rule="nonzero">
            <path d="M3.5,52 C2.11928813,52 1,50.8807119 1,49.5 L1,37.5 C1,36.8369588 1.2633921,36.201074 1.73223305,35.732233 C2.20107399,35.2633921 2.83695878,35 3.5,35 L7.355,35 C10.242,30.205 15.496,26.987 21.5,26.987 L29.905,26.987 L1.171,1.877 C1.03541055,1.75975372 0.972958549,1.57889571 1.00731173,1.40296661 C1.0416649,1.22703752 1.16756639,1.08295876 1.33730269,1.02533257 C1.50703899,0.96770639 1.69463632,1.00535098 1.829,1.124 L31.425,26.987 L49,26.987 L84.984,1.689 C86.488,0.805 88.109,0.668 89.222,1.895 C89.7225227,2.44677193 89.9998465,3.16503339 90,3.91 L90,20.497 L112.171,1.124 C112.305364,1.00535098 112.492961,0.96770639 112.662697,1.02533257 C112.832434,1.08295876 112.958335,1.22703752 112.992688,1.40296661 C113.027041,1.57889571 112.964589,1.75975372 112.829,1.877 L90,21.827 L90,32.987 L91,32.987 C92.5916455,32.9869999 94.1180722,33.6194155 95.243348,34.7450664 C96.3686237,35.8707172 97.0005305,37.3973546 97,38.989 L97,49.991 C97.0002652,51.5824722 96.3682413,53.1088526 95.2429943,54.2342871 C94.1177473,55.3597217 92.5914722,55.992 91,55.992 L90,55.992 L90,78.174 L112.829,98.124 C112.964589,98.2412463 113.027041,98.4221043 112.992688,98.5980334 C112.958335,98.7739625 112.832434,98.9180412 112.662697,98.9756674 C112.492961,99.0332936 112.305364,98.995649 112.171,98.877 L90,79.502 L90,82.076 C90,83.7328542 88.6568542,85.076 87,85.076 C86.277,85.076 85.798,84.724 85.033,84.341 L50,63.807 L50,70 L51,70 C52.1045695,70 53,70.8954305 53,72 L53,78 C53,79.1045695 52.1045695,80 51,80 L50,80 L50,90 C50,92.7614237 47.7614237,95 45,95 L49,95 L29,95 L33,95 C30.2385763,95 28,92.7614237 28,90 L28,76.006 L1.829,98.876 C1.69588035,99.0020131 1.50447893,99.0450819 1.33021271,98.9882362 C1.1559465,98.9313905 1.02675631,98.7837446 0.993546336,98.6034746 C0.960336359,98.4232047 1.02843128,98.2392142 1.171,98.124 L28,74.678 L28,59.993 L21.5,59.993 C15.7081644,59.9988622 10.3382349,56.9644439 7.355,52 L3.5,52 Z M3.5,51 L7.355,51 C7.705,51 8.031,51.175 8.212,51.476 C11.0129687,56.1422999 16.0575951,58.9960369 21.5,58.993 L28,58.993 C28.5522847,58.993 29,59.4407153 29,59.993 L29,73.804 L56.24,50 L31.05,27.9869976 L21.5,27.9869976 C16.0575951,27.9839631 11.0129687,30.8377001 8.212,35.504 C8.03099553,35.8044775 7.70578388,35.9881443 7.355,35.988 L3.5,35.988 L3.5,36 C2.67157288,36 2,36.6715729 2,37.5 L2,49.5 C2,50.3284271 2.67157288,51 3.5,51 Z M49,90 L49,77 L29,77 L29,90 C29,92.209139 30.790861,94 33,94 L45,94 C47.209139,94 49,92.209139 49,90 Z M49,63.807 C48.9998327,63.4484107 49.1916802,63.1171819 49.5028066,62.9388936 C49.813933,62.7606054 50.1967047,62.7625537 50.506,62.944 L85.48,83.447 C85.509,83.461 86.32,83.889 86.492,83.961 C86.685,84.043 86.833,84.076 87,84.076 C88.1045695,84.076 89,83.1805695 89,82.076 L89,78.628 L57,50.664 L29,75.132 L29,77 L49,77 L49,63.807 Z M50,71 L50,79 L51,79 C51.5522847,79 52,78.5522847 52,78 L52,72 C52,71.4477153 51.5522847,71 51,71 L50,71 Z M89,77.3 L89,22.7 L57.76,50 L89,77.3 Z M90,54.992 L91,54.992 C93.7614237,54.992 96,52.7534237 96,49.992 L96,38.988 C96.0002653,37.6617443 95.4735981,36.3897178 94.5358875,35.4518196 C93.5981769,34.5139214 92.3262557,33.987 91,33.987 L90,33.987 L90,54.991 L90,54.992 Z M89,21.372 L89,3.911 C89,3.41408127 88.8149574,2.93496832 88.481,2.567 C87.804,1.82 86.756,1.807 85.559,2.507 L49.575,27.805 C49.4066314,27.9233969 49.2058296,27.9869551 49,27.987 L32.57,27.987 L57,49.336 L89,21.372 Z M45.158,98 C45.347,98 45.5,98.224 45.5,98.5 C45.5,98.776 45.347,99 45.158,99 L32.842,99 C32.653,99 32.5,98.776 32.5,98.5 C32.5,98.224 32.653,98 32.842,98 L45.158,98 Z M103.5,45 C103.223858,45 103,44.7761424 103,44.5 C103,44.2238576 103.223858,44 103.5,44 L112.5,44 C112.776142,44 113,44.2238576 113,44.5 C113,44.7761424 112.776142,45 112.5,45 L103.5,45 Z M102.659,50.495 L111.962,59.798 C112.151486,59.9941894 112.148776,60.3060424 111.955909,60.4989093 C111.763042,60.6917762 111.451189,60.6944861 111.255,60.505 L101.952,51.202 C101.762514,51.0058106 101.765224,50.6939576 101.958091,50.5010907 C102.150958,50.3082238 102.462811,50.3055139 102.659,50.495 Z M102.659,39.505 C102.462811,39.6944861 102.150958,39.6917762 101.958091,39.4989093 C101.765224,39.3060424 101.762514,38.9941894 101.952,38.798 L111.255,29.495 C111.451189,29.3055139 111.763042,29.3082238 111.955909,29.5010907 C112.148776,29.6939576 112.151486,30.0058106 111.962,30.202 L102.659,39.505 Z" id="Shape"></path>
        </g>
    </g>
</svg>