<?xml version="1.0" encoding="UTF-8"?>
<svg width="150px" height="120px" viewBox="0 0 150 120" version="1.1" xmlns="http://www.w3.org/2000/svg" xmlns:xlink="http://www.w3.org/1999/xlink">
    <!-- Generator: Sketch 56.2 (81672) - https://sketch.com -->
    <title>Mobile Portrait</title>
    <desc>Created with Sketch.</desc>
    <g id="Mobile-Portrait" stroke="none" stroke-width="1" fill="none" fill-rule="evenodd">
        <g id="no-markups" transform="translate(18.000000, 10.000000)" fill="#2C2C2C" fill-rule="nonzero">
            <path d="M85.387,24.53 L112.17,1.123 C112.304364,1.00435098 112.491961,0.96670639 112.661697,1.02433257 C112.831434,1.08195876 112.957335,1.22603752 112.991688,1.40196661 C113.026041,1.57789571 112.963589,1.75875372 112.828,1.876 L85.792,25.503 C85.929,25.962 86,26.442 86,26.929 L86,28.023 L88.705,31.007 C89.5385219,31.9267842 90.0001179,33.1237257 90,34.365 L90,78.174 L112.829,98.124 C112.964589,98.2412463 113.027041,98.4221043 112.992688,98.5980334 C112.958335,98.7739625 112.832434,98.9180412 112.662697,98.9756674 C112.492961,99.0332936 112.305364,98.995649 112.171,98.877 L90,79.502 L90,94 C90,96.7614237 87.7614237,99 85,99 L37,99 C34.591,99 32.528,97.142 32.054,94.872 C29.7009408,94.4178067 28.0006439,92.358493 28,89.962 L28,76.006 L1.829,98.876 C1.69588035,99.0020131 1.50447893,99.0450819 1.33021271,98.9882362 C1.1559465,98.9313905 1.02675631,98.7837446 0.993546336,98.6034746 C0.960336359,98.4232047 1.02843128,98.2392142 1.171,98.124 L28,74.678 L28,26.928 C28,26.442 28.071,25.962 28.208,25.503 L1.17,1.877 C1.0354895,1.75928099 0.973999022,1.57874364 1.00869143,1.40339463 C1.04338384,1.22804561 1.16898853,1.08452462 1.33819143,1.02689462 C1.50739434,0.969264625 1.69448951,1.00628098 1.829,1.124 L28.613,24.529 C28.801,24.187 29.029,23.865 29.295,23.571 L41.012,10.642 C41.9598946,9.59627587 43.3056024,8.99987851 44.717,9 L56.5,9 L56.5,1.5 C56.5,1.22385763 56.7238576,1 57,1 C57.2761424,1 57.5,1.22385763 57.5,1.5 L57.5,9 L69.284,9 C70.6950493,9.00016076 72.0403393,9.5965339 72.988,10.642 L84.705,23.571 C84.971,23.865 85.199,24.187 85.387,24.529 L85.387,24.53 Z M29.389,25.208 L57,49.336 L84.61,25.208 C84.4428386,24.8562702 84.2252091,24.5308366 83.964,24.242 L72.247,11.314 C71.4889896,10.4775306 70.4128315,10 69.284,10 L57.5,10 L57.5,17.025 C60.1507746,17.2914129 62.127104,19.5894629 61.9937304,22.2502511 C61.8603567,24.9110392 59.6641287,26.9999372 57,26.9999372 C54.3358713,26.9999372 52.1396433,24.9110392 52.0062696,22.2502511 C51.872896,19.5894629 53.8492254,17.2914129 56.5,17.025 L56.5,10 L44.717,10 C43.5878202,10 42.5112443,10.4772726 41.753,11.314 L30.036,24.242 C29.7744377,24.530771 29.5564691,24.856208 29.389,25.208 Z M29.059,26.247 C29.0198812,26.4722297 29,26.7003984 29,26.929 L29,73.804 L56.24,50 L29.06,26.247 L29.059,26.247 Z M29,75.132 L29,89.962 C29,92.171139 30.790861,93.962 33,93.962 L81,93.962 C83.209139,93.962 85,92.171139 85,89.962 L85,75.132 L57,50.664 L29,75.132 Z M85,73.804 L85,26.93 C85,26.7013984 84.9801188,26.4732297 84.941,26.248 L57.76,50 L85,73.804 Z M89,78.628 L86,76.006 L86,89.962 C86,92.7234237 83.7614237,94.962 81,94.962 L33.114,94.962 C33.558,96.687 35.136,98 37,98 L85,98 C87.209139,98 89,96.209139 89,94 L89,78.628 Z M89,77.3 L89,34.365 C89,33.3721185 88.6307249,32.4147252 87.964,31.679 L86,29.512 L86,74.678 L89,77.3 Z M56.5,18.031 C54.4046889,18.2949844 52.8755992,20.1423886 53.007851,22.2501186 C53.1401027,24.3578486 54.8881249,25.999627 57,25.999627 C59.1118751,25.999627 60.8598973,24.3578486 60.992149,22.2501186 C61.1244008,20.1423886 59.5953111,18.2949844 57.5,18.031 L57.5,22 C57.5,22.2761424 57.2761424,22.5 57,22.5 C56.7238576,22.5 56.5,22.2761424 56.5,22 L56.5,18.031 Z M45.177,81.352 C45.0865633,81.2004132 45.0041173,81.0441998 44.93,80.884 C44.8053797,80.6437465 44.6935568,80.3970685 44.595,80.145 C44.4732313,79.7828713 44.412405,79.4030446 44.415,79.021 C44.415,78.241 44.733,77.543 45.37,76.926 C46.008,76.309 46.921,76 48.11,76 C49.23,76 50.077,76.305 50.652,76.915 C51.227,77.525 51.522,78.386 51.536,79.501 L50.144,79.501 C50.144,78.746 49.967,78.173 49.613,77.781 C49.259,77.388 48.721,77.191 47.998,77.191 C47.295,77.191 46.763,77.376 46.402,77.743 C46.0463156,78.0963496 45.8505091,78.5797244 45.86,79.081 C45.86,79.341 45.916,79.608 46.03,79.883 C46.142,80.158 46.382,80.648 46.748,81.353 L49.218,81.353 L49.218,82.132 L47.087,82.132 C47.137,82.362 47.173,82.542 47.196,82.672 C47.219,82.802 47.23,82.936 47.23,83.076 C47.23,83.576 47.08,84.07 46.778,84.556 C46.477,85.044 46.005,85.528 45.363,86.007 C45.6917709,85.839222 46.0343676,85.7000421 46.387,85.591 C46.723,85.489 47.052,85.438 47.373,85.438 C47.734,85.438 48.213,85.526 48.807,85.704 C49.402,85.881 49.792,85.97 49.978,85.97 C50.214,85.97 50.43,85.925 50.625,85.835 C50.746,85.78 50.929,85.665 51.175,85.49 L51.8,86.502 C51.5670801,86.6949831 51.3147228,86.8632212 51.047,87.004 C50.6828415,87.1786389 50.283866,87.2685537 49.88,87.2670198 C49.579,87.2670198 49.073,87.152 48.363,86.922 C47.653,86.692 47.092,86.577 46.68,86.577 C46.299,86.577 45.937,86.642 45.596,86.772 C45.3276773,86.886956 45.0685817,87.0223543 44.821,87.177 L44.075,86.112 C44.642,85.717 45.099,85.282 45.445,84.804 C45.792,84.327 45.965,83.808 45.965,83.249 C45.965,83.089 45.932,82.901 45.867,82.687 C45.8077383,82.4990331 45.7400024,82.3138437 45.664,82.132 L44,82.132 L44,81.352 L45.177,81.352 L45.177,81.352 Z M54.711,81.352 C54.6202231,81.2004347 54.5374431,81.0442209 54.463,80.884 C54.3383797,80.6437465 54.2265568,80.3970685 54.128,80.145 C54.0062313,79.7828713 53.945405,79.4030446 53.948,79.021 C53.948,78.241 54.266,77.543 54.904,76.926 C55.541,76.309 56.454,76 57.644,76 C58.764,76 59.61,76.305 60.185,76.915 C60.76,77.525 61.055,78.386 61.07,79.501 L59.677,79.501 C59.677,78.746 59.5,78.173 59.147,77.781 C58.792,77.388 58.254,77.191 57.531,77.191 C56.829,77.191 56.296,77.376 55.935,77.743 C55.5793156,78.0963496 55.3835091,78.5797244 55.393,79.081 C55.393,79.341 55.449,79.608 55.563,79.883 C55.675,80.158 55.915,80.648 56.281,81.353 L58.751,81.353 L58.751,82.132 L56.621,82.132 C56.671,82.362 56.707,82.542 56.729,82.672 C56.752,82.802 56.763,82.936 56.763,83.076 C56.763,83.576 56.613,84.07 56.312,84.556 C56.01,85.044 55.539,85.528 54.896,86.007 C55.2247709,85.839222 55.5673676,85.7000421 55.92,85.591 C56.256,85.489 56.585,85.438 56.906,85.438 C57.268,85.438 57.746,85.526 58.341,85.704 C58.935,85.881 59.326,85.97 59.511,85.97 C59.747,85.97 59.963,85.925 60.159,85.835 C60.279,85.78 60.462,85.665 60.709,85.49 L61.333,86.502 C61.1000801,86.6949831 60.8477228,86.8632212 60.58,87.004 C60.2158415,87.1786389 59.816866,87.2685537 59.413,87.2670198 C59.113,87.2670198 58.607,87.152 57.896,86.922 C57.186,86.692 56.626,86.577 56.214,86.577 C55.832,86.577 55.471,86.642 55.129,86.772 C54.8606773,86.886956 54.6015817,87.0223543 54.354,87.177 L53.609,86.112 C54.176,85.717 54.633,85.282 54.979,84.804 C55.325,84.327 55.499,83.808 55.499,83.249 C55.499,83.089 55.466,82.901 55.401,82.687 C55.3414101,82.4990163 55.2733404,82.3138268 55.197,82.132 L53.533,82.132 L53.533,81.352 L54.711,81.352 L54.711,81.352 Z M63.377,81.352 C63.2865633,81.2004132 63.2041173,81.0441998 63.13,80.884 C63.0053797,80.6437465 62.8935568,80.3970685 62.795,80.145 C62.6732313,79.7828713 62.612405,79.4030446 62.615,79.021 C62.615,78.241 62.933,77.543 63.57,76.926 C64.208,76.309 65.121,76 66.31,76 C67.43,76 68.277,76.305 68.852,76.915 C69.427,77.525 69.722,78.386 69.736,79.501 L68.344,79.501 C68.344,78.746 68.167,78.173 67.813,77.781 C67.459,77.388 66.921,77.191 66.198,77.191 C65.495,77.191 64.963,77.376 64.602,77.743 C64.2463156,78.0963496 64.0505091,78.5797244 64.06,79.081 C64.06,79.341 64.116,79.608 64.23,79.883 C64.342,80.158 64.582,80.648 64.948,81.353 L67.418,81.353 L67.418,82.132 L65.287,82.132 C65.337,82.362 65.373,82.542 65.396,82.672 C65.419,82.802 65.43,82.936 65.43,83.076 C65.43,83.576 65.28,84.07 64.978,84.556 C64.677,85.044 64.205,85.528 63.563,86.007 C63.8917709,85.839222 64.2343676,85.7000421 64.587,85.591 C64.923,85.489 65.252,85.438 65.573,85.438 C65.934,85.438 66.413,85.526 67.007,85.704 C67.602,85.881 67.992,85.97 68.178,85.97 C68.414,85.97 68.63,85.925 68.825,85.835 C68.946,85.78 69.129,85.665 69.375,85.49 L70,86.502 C69.7670801,86.6949831 69.5147228,86.8632212 69.247,87.004 C68.8828415,87.1786389 68.483866,87.2685537 68.08,87.2670198 C67.779,87.2670198 67.273,87.152 66.563,86.922 C65.853,86.692 65.292,86.577 64.88,86.577 C64.499,86.577 64.137,86.642 63.796,86.772 C63.5276773,86.886956 63.2685817,87.0223543 63.021,87.177 L62.275,86.112 C62.842,85.717 63.299,85.282 63.645,84.804 C63.992,84.327 64.165,83.808 64.165,83.249 C64.165,83.089 64.132,82.901 64.067,82.687 C64.0077383,82.4990331 63.9400024,82.3138437 63.864,82.132 L62.2,82.132 L62.2,81.352 L63.377,81.352 L63.377,81.352 Z" id="Shape"></path>
        </g>
    </g>
</svg>