<?xml version="1.0" encoding="UTF-8"?>
<svg width="150px" height="120px" viewBox="0 0 150 120" version="1.1" xmlns="http://www.w3.org/2000/svg" xmlns:xlink="http://www.w3.org/1999/xlink">
    <!-- Generator: Sketch 56.2 (81672) - https://sketch.com -->
    <title>Mobile Portrait</title>
    <desc>Created with Sketch.</desc>
    <g id="Mobile-Portrait" stroke="none" stroke-width="1" fill="none" fill-rule="evenodd">
        <g id="no-middle-men" transform="translate(18.000000, 10.000000)" fill="#2C2C2C" fill-rule="nonzero">
            <path d="M53.235,47.374 L52.46,46.714 C52.392713,46.6568854 52.3292436,46.5954202 52.27,46.53 L46.287,41.303 C37.272,45.384 31,54.46 31,65 L31,72.057 L56.24,50 L53.235,47.374 Z M51.796,44.788 C51.8732371,44.4104332 52.0583925,44.0633972 52.329,43.789 L55.485,40.577 C56.2593569,39.7895685 57.5253904,39.7788242 58.313,40.553 C58.325,40.563 59.384,41.683 61.493,43.91 C61.776,44.21 61.949,44.576 62.013,44.956 L66.692,40.866 C63.6106155,39.6291575 60.3203451,38.995682 57,38.9999781 C53.574,38.9999781 50.303,39.663 47.308,40.866 L51.796,44.788 L51.796,44.788 Z M58.298,51.798 L64.155,72.233 C64.355673,72.9319537 64.1611553,73.6847526 63.647,74.199 L58.444,79.4 C57.6630003,80.1807639 56.3969997,80.1807639 55.616,79.4 L50.428,74.212 C49.9145845,73.6985723 49.7197603,72.947217 49.919,72.249 L55.781,51.729 L31,73.384 L31,90 C31,92.209139 32.790861,94 35,94 L79,94 C81.209139,94 83,92.209139 83,90 L83,73.385 L58.298,51.798 Z M67.533,40.132 L112.17,1.124 C112.304364,1.00535098 112.491961,0.96770639 112.661697,1.02533257 C112.831434,1.08295876 112.957335,1.22703752 112.991688,1.40296661 C113.026041,1.57889571 112.963589,1.75975372 112.828,1.877 L68.537,40.582 C77.677,44.908 84,54.216 84,65 L84,72.93 L112.829,98.124 C112.964589,98.2412463 113.027041,98.4221043 112.992688,98.5980334 C112.958335,98.7739625 112.832434,98.9180412 112.662697,98.9756674 C112.492961,99.0332936 112.305364,98.995649 112.171,98.877 L84,74.259 L84,90 C84,92.7614237 81.7614237,95 79,95 L35,95 C32.2385763,95 30,92.7614237 30,90 L30,74.259 L1.829,98.877 C1.69463632,98.995649 1.50703899,99.0332936 1.33730269,98.9756674 C1.16756639,98.9180412 1.0416649,98.7739625 1.00731173,98.5980334 C0.972958549,98.4221043 1.03541055,98.2412463 1.171,98.124 L30,72.93 L30,65 C30,54.216 36.322,44.908 45.463,40.582 L1.17,1.877 C1.0354895,1.75928099 0.973999022,1.57874364 1.00869143,1.40339463 C1.04338384,1.22804561 1.16898853,1.08452462 1.33819143,1.02689462 C1.50739434,0.969264625 1.69448951,1.00628098 1.829,1.124 L46.467,40.132 C49.7989815,38.7204973 53.3813788,37.995379 57,38 C60.737,38 64.296,38.76 67.533,40.132 Z M83,72.057 L83,65 C83,54.46 76.728,45.384 67.713,41.303 L57.76,50 L83,72.057 Z M53.888,46.617 L56.941,49.212 L60.685,46.049 C60.8948532,45.8713967 61.0223321,45.6152313 61.0374667,45.3407277 C61.0526013,45.066224 60.9540565,44.797597 60.765,44.598 C59.7143533,43.486999 58.6633533,42.3763323 57.612,41.266 C57.2181952,40.8789121 56.5851784,40.8842843 56.198,41.278 L53.042,44.49 C52.6845363,44.8535558 52.6578257,45.4278332 52.98,45.823 L53.888,46.617 L53.888,46.617 Z M35,99 C34.7238576,99 34.5,98.7761424 34.5,98.5 C34.5,98.2238576 34.7238576,98 35,98 L79,98 C79.2761424,98 79.5,98.2238576 79.5,98.5 C79.5,98.7761424 79.2761424,99 79,99 L35,99 Z M57,35 C47.611,35 40,27.389 40,18 C40,8.611 47.611,1 57,1 C66.389,1 74,8.611 74,18 C74,27.389 66.389,35 57,35 Z M57,34 C65.837,34 73,26.837 73,18 C73,9.163 65.837,2 57,2 C48.163,2 41,9.163 41,18 C41,26.837 48.163,34 57,34 Z M57.03,51 L50.88,72.524 C50.7803106,72.873352 50.8779316,73.2492888 51.135,73.506 L56.323,78.694 C56.7134999,79.0843819 57.3465001,79.0843819 57.737,78.694 L62.939,73.491 C63.1960684,73.2342888 63.2936894,72.858352 63.194,72.509 L57.029,51 L57.03,51 Z" id="Shape"></path>
        </g>
    </g>
</svg>