<?xml version="1.0" encoding="UTF-8"?>
<svg width="150px" height="120px" viewBox="0 0 150 120" version="1.1" xmlns="http://www.w3.org/2000/svg" xmlns:xlink="http://www.w3.org/1999/xlink">
    <!-- Generator: Sketch 56.2 (81672) - https://sketch.com -->
    <title>Mobile Portrait</title>
    <desc>Created with Sketch.</desc>
    <g id="Mobile-Portrait" stroke="none" stroke-width="1" fill="none" fill-rule="evenodd">
        <g id="stores" transform="translate(8.000000, 11.000000)" fill="#2C2C2C" fill-rule="nonzero">
            <path d="M111.95,56 C111.693318,54.7425184 110.526151,53.8836652 109.249238,54.0126596 C107.972325,54.141654 107.00051,55.2165882 107.00051,56.5 C107.00051,57.7834118 107.972325,58.858346 109.249238,58.9873404 C110.526151,59.1163348 111.693318,58.2574816 111.95,57 L109.5,57 C109.223858,57 109,56.7761424 109,56.5 C109,56.2238576 109.223858,56 109.5,56 L111.95,56 Z M112.965,56 L114.5,56 C114.776142,56 115,56.2238576 115,56.5 C115,56.7761424 114.776142,57 114.5,57 L112.965,57 C112.702751,58.8169132 111.081283,60.1224758 109.250255,59.9910139 C107.419226,59.8595519 106.000898,58.3357418 106.000898,56.5 C106.000898,54.6642582 107.419226,53.1404481 109.250255,53.0089861 C111.081283,52.8775242 112.702751,54.1830868 112.965,56 Z M99,78 L99,17 L100,17 L100,79 L1,79 L1,93 L133,93 L133,17 L1,17 L1,78 L99,78 Z M134,10 L134,94 L-5.57331958e-17,94 L-5.57331958e-17,10 C-5.57331958e-17,4.477 4.477,0 10,0 L124,0 C129.523,0 134,4.477 134,10 Z M133,16 L133,10 C133,5.02943725 128.970563,1 124,1 L10,1 C5.02943725,1 1,5.02943725 1,10 L1,16 L133,16 Z M4,20 L96,20 L96,75 L4,75 L4,20 Z M5,21 L5,74 L95,74 L95,21 L5,21 Z M77.8,41 L79.641,41 L79.641,54 L77.291,54 L77.291,45.903 L74.119,51.029 L72.865,51.029 L69.692,45.866 L69.692,54 L67.342,54 L67.342,41 L69.222,41 L73.492,47.834 L77.8,41 Z M56.383,41 L64.923,41 L64.961,43.117 L58.733,43.117 L58.733,46.126 L63.433,46.126 L63.433,48.28 L58.733,48.28 L58.733,51.846 L64.923,51.846 L64.923,54 L56.383,54 L56.383,41 L56.383,41 Z M34.942,41 L43.481,41 L43.52,43.117 L37.292,43.117 L37.292,46.126 L41.992,46.126 L41.992,48.28 L37.292,48.28 L37.292,51.846 L43.481,51.846 L43.481,54 L34.941,54 L34.941,41 L34.942,41 Z M30.458,41 L32.3,41 L32.3,54 L29.95,54 L29.95,45.903 L26.777,51.029 L25.524,51.029 L22.351,45.866 L22.351,54 L20,54 L20,41 L21.88,41 L26.15,47.834 L30.458,41 L30.458,41 Z M48.37,43.048 L50.517,43.048 L50.517,46.237 L53.921,46.237 L53.921,48.312 L50.517,48.312 L50.517,51.5 L48.37,51.5 L48.37,48.31 L44.966,48.31 L44.966,46.236 L48.37,46.236 L48.37,43.046 L48.37,43.048 Z M0.504,98 C0.370861002,98.0005315 0.242964012,97.9481514 0.148445447,97.854383 C0.0539268824,97.7606146 -5.57331958e-17,97.633139 -5.57331958e-17,97.5 C-5.57331958e-17,97.224 0.226,97 0.504,97 L133.496,97 C133.774,97 134,97.224 134,97.5 C134,97.776 133.774,98 133.496,98 L0.504,98 Z M114.273,25.755 C114.083514,25.5588106 114.086224,25.2469576 114.279091,25.0540907 C114.471958,24.8612238 114.783811,24.8585139 114.98,25.048 L124.49,34.558 C124.685509,34.7532327 124.685733,35.0699912 124.4905,35.2655 C124.295267,35.4610087 123.978509,35.4612326 123.783,35.266 L114.273,25.756 L114.273,25.755 Z M119.116,26.063 C118.986022,25.9374628 118.933894,25.7515611 118.979651,25.5767463 C119.025409,25.4019316 119.161932,25.2654091 119.336746,25.2196514 C119.511561,25.1738937 119.697463,25.2260217 119.823,25.356 L124.333,29.866 C124.514693,30.0631261 124.508584,30.3684709 124.319152,30.5581719 C124.129719,30.7478729 123.824383,30.7544141 123.627,30.573 L119.117,26.063 L119.116,26.063 Z M103,20 L130,20 L130,90 L103,90 L103,20 Z M104,21 L104,89 L129,89 L129,21 L104,21 Z" id="Shape"></path>
        </g>
    </g>
</svg>